<?xml version="1.0" standalone="no"?>
<!DOCTYPE svg PUBLIC "-//W3C//DTD SVG 20010904//EN"
 "http://www.w3.org/TR/2001/REC-SVG-20010904/DTD/svg10.dtd">
<svg version="1.0" xmlns="http://www.w3.org/2000/svg"
 width="512.000000pt" height="512.000000pt" viewBox="0 0 512.000000 512.000000"
 preserveAspectRatio="xMidYMid meet">

<g transform="translate(0.000000,512.000000) scale(0.100000,-0.100000)"
fill="#000000" stroke="none">
<path d="M1938 4628 c-129 -12 -263 -80 -352 -178 l-36 -41 -44 26 c-24 14
-77 33 -117 41 -219 46 -428 -97 -470 -321 -7 -33 -18 -73 -25 -90 -6 -16 -17
-50 -24 -75 -6 -25 -18 -68 -26 -96 l-15 -51 -127 34 c-105 28 -140 33 -202
30 -119 -6 -214 -65 -273 -169 -15 -25 -66 -195 -123 -408 -88 -324 -99 -374
-98 -445 0 -98 32 -172 98 -233 60 -55 101 -75 241 -112 66 -18 121 -33 123
-35 2 -2 -28 -122 -67 -268 -45 -166 -71 -283 -71 -316 0 -84 50 -159 126
-189 24 -9 613 -168 1311 -354 168 -45 214 -46 274 -5 78 53 77 51 245 679 87
324 159 587 160 585 1 -1 122 -450 269 -997 146 -547 271 -1008 277 -1024 30
-76 105 -126 190 -126 80 0 1456 370 1517 407 58 37 91 97 91 169 0 35 -25
146 -70 315 -39 144 -69 263 -67 266 3 2 58 19 124 37 65 18 137 42 158 52 94
44 172 161 182 272 7 72 -19 180 -48 205 -29 23 -74 22 -100 -4 -18 -18 -20
-29 -15 -68 19 -134 19 -138 -4 -186 -13 -27 -37 -56 -59 -70 -38 -25 -254
-90 -275 -82 -11 4 -42 105 -35 111 2 2 42 13 89 25 47 12 98 27 113 33 28 11
57 53 57 82 0 18 -167 643 -180 674 -5 12 -24 29 -43 38 -31 15 -38 14 -145
-14 l-112 -30 -10 36 c-23 87 -29 81 110 119 111 30 130 33 174 23 58 -12 98
-39 124 -83 11 -17 38 -104 61 -192 33 -126 47 -165 67 -182 30 -27 51 -29 82
-7 44 31 44 51 -5 231 -50 186 -78 247 -136 300 -104 94 -213 108 -411 54 -65
-18 -122 -29 -126 -24 -7 8 -46 144 -76 266 -19 79 -48 131 -100 184 -90 90
-233 125 -359 89 l-58 -17 -36 34 c-80 76 -125 92 -168 62 -29 -20 -37 -59
-18 -95 9 -17 20 -30 26 -30 6 0 41 -31 79 -70 79 -81 99 -86 180 -45 179 91
374 -89 291 -270 -31 -69 -113 -125 -184 -125 -10 0 -32 -13 -48 -29 -38 -38
-38 -70 1 -211 19 -68 28 -119 24 -135 -14 -55 -93 -75 -131 -32 -11 12 -34
73 -52 142 -38 140 -48 159 -95 175 -30 10 -42 8 -98 -16 -90 -39 -193 -44
-273 -14 -112 42 -161 36 -191 -22 -82 -158 -279 -194 -399 -73 -103 102 -95
263 17 359 53 45 97 58 196 54 102 -4 125 10 148 90 33 118 105 201 219 253
79 35 85 41 85 87 0 79 -69 91 -188 31 -94 -48 -173 -130 -219 -228 l-38 -80
-56 -1 c-31 0 -77 -6 -103 -14 -34 -11 -46 -11 -43 -3 2 7 18 68 36 137 18 69
40 150 49 180 10 32 17 87 17 131 -1 65 -6 86 -33 141 -18 37 -51 83 -76 106
-41 37 -44 44 -51 107 -19 181 -101 323 -242 418 -116 79 -236 109 -385 95z
m187 -163 c173 -48 295 -222 295 -421 0 -68 10 -87 60 -119 55 -35 90 -91 97
-156 4 -46 1 -62 -24 -109 -23 -44 -39 -60 -82 -82 -94 -49 -170 -35 -253 46
l-47 46 -113 -6 c-132 -8 -188 4 -282 61 -121 73 -165 44 -215 -143 -19 -68
-41 -132 -50 -142 -44 -54 -133 -20 -133 50 0 19 12 76 26 127 33 118 33 145
-1 183 -25 27 -37 32 -106 39 -102 12 -166 53 -210 136 -30 56 -30 164 0 221
53 100 168 157 270 135 29 -7 74 -28 100 -47 103 -74 131 -70 208 26 61 77 89
99 171 137 91 41 181 47 289 18z m-1083 -671 c52 -49 131 -90 189 -100 l37 -6
-22 -81 c-21 -76 -24 -82 -54 -91 -38 -11 -117 -77 -136 -115 -8 -14 -69 -233
-136 -485 -135 -507 -136 -514 -85 -602 64 -109 235 -157 353 -98 59 29 110
93 119 148 15 95 -98 128 -140 41 -23 -49 -58 -69 -109 -62 -49 7 -89 34 -102
69 -7 20 17 122 109 464 64 242 121 447 126 457 6 9 21 24 34 33 23 15 25 14
60 -24 19 -22 51 -47 70 -56 19 -10 35 -22 35 -29 0 -6 -32 -132 -71 -280
l-72 -268 20 -27 c26 -34 83 -42 110 -15 16 16 142 460 168 590 4 19 14 35 25
38 10 3 34 23 54 45 33 36 63 114 82 208 4 18 8 32 9 32 1 0 27 -11 56 -23 84
-37 144 -48 245 -46 90 2 94 1 133 -30 83 -66 214 -98 304 -73 27 8 37 7 37
-1 0 -7 -98 -378 -217 -824 -167 -623 -221 -813 -233 -813 -8 0 -348 90 -755
199 -648 174 -740 201 -739 217 1 24 438 1654 443 1654 2 0 26 -20 53 -46z
m-370 -65 c62 -16 114 -32 116 -34 6 -6 -28 -115 -36 -115 -4 0 -47 11 -97 25
-49 14 -104 25 -122 25 -59 0 -71 -27 -166 -382 -48 -178 -87 -334 -87 -346 0
-44 40 -71 145 -99 55 -14 104 -29 108 -33 7 -6 -2 -58 -18 -107 -6 -19 -248
49 -292 83 -40 30 -72 93 -73 141 0 26 155 625 192 741 13 43 64 101 103 118
47 21 106 16 227 -17z m-12 -280 c25 -7 48 -15 52 -18 4 -3 -23 -119 -60 -256
-66 -245 -68 -250 -93 -248 -50 3 -109 24 -109 38 0 8 29 123 65 256 36 133
65 243 65 246 0 2 8 2 18 -1 9 -2 37 -10 62 -17z m3704 -1318 c119 -447 216
-815 214 -817 -7 -6 -1509 -407 -1511 -403 -4 5 -445 1654 -443 1656 0 1 30
-5 66 -14 148 -34 309 23 401 143 24 31 24 31 64 17 67 -24 194 -28 276 -9 39
10 72 16 73 14 1 -1 13 -41 25 -88 13 -47 29 -96 36 -110 7 -14 13 -52 12 -85
0 -47 26 -158 117 -495 64 -239 122 -448 128 -464 28 -70 105 -129 186 -142
46 -7 129 10 183 37 73 37 129 127 129 209 0 39 -235 920 -257 964 -8 17 -25
42 -38 56 -13 15 -31 61 -45 120 -13 52 -25 100 -27 107 -3 6 22 23 55 38 33
15 75 42 93 61 18 19 36 31 39 27 4 -5 104 -374 224 -822z m180 462 c26 -91
126 -473 126 -484 0 -16 -120 -54 -131 -41 -4 4 -35 113 -69 242 -34 129 -65
242 -67 251 -4 13 9 20 54 32 77 20 81 20 87 0z m-604 -137 c0 -3 52 -198 115
-434 63 -236 115 -438 115 -449 0 -74 -148 -120 -197 -62 -9 11 -243 860 -243
883 0 3 21 6 48 6 47 0 123 28 136 49 7 11 26 16 26 7z m-2682 -635 c409 -109
746 -202 749 -205 13 -12 -21 -98 -44 -113 -22 -15 -30 -14 -101 5 -42 11
-365 98 -717 192 -351 94 -646 176 -653 183 -22 17 -7 137 16 137 4 0 342 -90
750 -199z m3382 -742 c0 -22 -7 -42 -17 -51 -15 -13 -478 -141 -1296 -358 -64
-17 -132 -30 -150 -28 -36 3 -55 31 -59 88 l-3 33 235 64 c129 35 467 126 750
202 l515 138 12 -26 c7 -14 12 -42 13 -62z"/>
<path d="M1885 3341 c-72 -19 -133 -70 -161 -136 -6 -16 -65 -226 -130 -465
-83 -309 -117 -451 -117 -490 0 -137 121 -240 281 -240 85 0 165 47 202 120
27 53 260 927 260 975 0 50 -32 120 -73 163 -52 54 -188 92 -262 73z m99 -152
c47 -13 86 -50 86 -81 0 -13 -54 -223 -119 -468 -96 -358 -124 -448 -141 -462
-46 -37 -152 -10 -178 44 -12 25 -2 68 103 460 63 238 120 446 127 461 10 26
49 56 73 57 6 0 27 -5 49 -11z"/>
<path d="M3074 2470 c-98 -32 -159 -103 -171 -201 -5 -42 12 -114 118 -510
134 -503 144 -527 222 -573 64 -38 129 -43 214 -18 118 37 186 118 186 226 0
52 -215 881 -250 959 -9 20 -35 55 -59 76 -68 63 -149 76 -260 41z m160 -152
c22 -20 42 -85 145 -471 131 -487 131 -491 72 -521 -69 -36 -133 -27 -160 22
-13 24 -241 876 -241 900 0 70 129 119 184 70z"/>
<path d="M2743 4588 c-21 -23 -73 -194 -73 -240 0 -31 39 -68 72 -68 48 0 67
28 98 144 16 61 27 120 24 133 -13 52 -85 70 -121 31z"/>
<path d="M2970 4315 c-52 -30 -101 -62 -107 -72 -32 -42 5 -113 59 -113 31 0
202 94 228 125 21 26 17 76 -9 97 -36 29 -69 22 -171 -37z"/>
<path d="M2910 4020 c-25 -25 -26 -74 -1 -99 11 -11 39 -25 63 -31 24 -6 65
-18 92 -26 99 -28 156 -8 156 55 0 48 -27 67 -131 95 -117 31 -153 32 -179 6z"/>
</g>
</svg>
