<?xml version="1.0" standalone="no"?>
<!DOCTYPE svg PUBLIC "-//W3C//DTD SVG 20010904//EN"
 "http://www.w3.org/TR/2001/REC-SVG-20010904/DTD/svg10.dtd">
<svg version="1.0" xmlns="http://www.w3.org/2000/svg"
 width="512.000000pt" height="512.000000pt" viewBox="0 0 512.000000 512.000000"
 preserveAspectRatio="xMidYMid meet">

<g transform="translate(0.000000,512.000000) scale(0.100000,-0.100000)"
fill="#000000" stroke="none">
<path d="M2405 5114 c-575 -62 -1086 -438 -1310 -965 -153 -361 -167 -771 -38
-1143 49 -141 63 -166 379 -697 156 -262 284 -481 284 -485 0 -5 -46 -29 -103
-53 -252 -110 -265 -117 -294 -174 -112 -221 -676 -1430 -680 -1458 -10 -67
52 -139 121 -139 16 0 220 85 460 192 237 105 435 191 441 191 5 0 199 -85
430 -188 343 -154 428 -189 465 -189 37 0 121 34 471 190 l427 191 433 -193
c247 -110 447 -194 464 -194 69 0 132 71 122 139 -8 52 -692 1492 -719 1512
-12 9 -97 50 -190 90 -92 41 -168 78 -168 83 0 4 128 223 284 485 156 262 297
503 314 537 44 87 99 250 124 368 30 137 33 475 5 606 -47 223 -145 456 -263
622 -33 46 -104 129 -159 186 -236 246 -509 395 -840 462 -98 20 -366 34 -460
24z m285 -254 c593 -61 1062 -487 1187 -1080 24 -116 24 -380 0 -502 -18 -88
-75 -266 -104 -323 -9 -16 -264 -446 -567 -954 -418 -701 -558 -929 -581 -943
-38 -23 -92 -23 -130 0 -23 14 -165 244 -584 948 -305 511 -570 965 -589 1009
-120 286 -133 635 -32 935 163 486 612 850 1118 909 107 12 172 12 282 1z
m-633 -3592 c115 -193 215 -350 238 -374 23 -22 68 -54 101 -70 54 -26 68 -29
164 -29 96 0 110 3 164 29 33 16 78 48 101 70 23 24 123 180 238 374 109 183
202 332 206 330 4 -2 77 -34 162 -71 l154 -69 250 -529 c138 -291 251 -534
253 -538 2 -5 -132 51 -297 125 -185 83 -313 134 -333 134 -20 0 -190 -70
-459 -190 -234 -105 -431 -190 -437 -190 -6 0 -204 86 -440 190 -256 114 -440
190 -459 190 -18 0 -156 -56 -333 -134 -165 -74 -300 -131 -298 -126 2 5 115
247 253 538 l249 528 156 71 c85 39 158 72 162 72 4 1 96 -149 205 -331z"/>
<path d="M2405 4081 c-186 -53 -328 -191 -391 -376 -35 -104 -37 -245 -5 -345
55 -176 185 -309 369 -378 55 -21 86 -25 172 -26 121 -1 175 11 275 63 133 69
240 196 286 341 32 100 30 241 -5 345 -64 188 -215 331 -402 380 -77 20 -222
18 -299 -4z m298 -265 c61 -30 115 -83 148 -148 30 -58 38 -178 15 -243 -36
-107 -136 -193 -248 -214 -154 -29 -314 65 -364 214 -26 74 -16 188 23 256 86
152 272 211 426 135z"/>
</g>
</svg>
