<?xml version="1.0" standalone="no"?>
<!DOCTYPE svg PUBLIC "-//W3C//DTD SVG 20010904//EN"
 "http://www.w3.org/TR/2001/REC-SVG-20010904/DTD/svg10.dtd">
<svg version="1.0" xmlns="http://www.w3.org/2000/svg"
 width="512.000000pt" height="512.000000pt" viewBox="0 0 512.000000 512.000000"
 preserveAspectRatio="xMidYMid meet">

<g transform="translate(0.000000,512.000000) scale(0.100000,-0.100000)"
fill="#000000" stroke="none">
<path d="M3285 4731 c-858 -213 -1572 -391 -1587 -394 l-28 -7 0 -1490 c0
-820 -3 -1490 -6 -1490 -3 0 -19 9 -35 21 -16 11 -66 38 -113 59 -431 203
-983 34 -1180 -361 -111 -220 -100 -467 29 -675 55 -87 179 -208 272 -263 337
-200 791 -165 1083 84 79 67 152 160 194 248 69 143 66 59 66 1544 l0 1342 33
9 c185 50 2528 624 2532 620 3 -2 4 -435 3 -960 l-3 -956 -75 44 c-385 224
-911 133 -1180 -204 -101 -127 -150 -268 -150 -432 0 -192 64 -345 203 -488
112 -116 267 -203 433 -244 128 -31 324 -31 449 1 311 79 546 296 615 567 20
75 20 120 20 1946 0 1027 -3 1867 -7 1867 -5 -1 -710 -175 -1568 -388z"/>
</g>
</svg>
